<svg xmlns="http://www.w3.org/2000/svg" fill="none" viewBox="-0.25 -0.25 14 14" id="Blank-Calendar--Streamline-Core.svg" height="14" width="14"><desc>Blank Calendar Streamline Icon: https://streamlinehq.com</desc><g id="blank-calendar--blank-calendar-date-day-month-empty"><path id="Vector" stroke="#9c9c9b" stroke-linecap="round" stroke-linejoin="round" d="M1.4464285714285714 1.9285714285714286c-0.25574785714285714 0 -0.5010139285714286 0.10159714285714286 -0.6818531785714286 0.28242964285714284C0.5837371071428572 2.3918432142857147 0.48214285714285715 2.637109285714286 0.48214285714285715 2.892857142857143v9.160714285714286c0 0.2557285714285714 0.10159425000000001 0.5010428571428571 0.2824325357142857 0.6818464285714285 0.18083925 0.18080357142857142 0.42610532142857144 0.2824392857142857 0.6818531785714286 0.2824392857142857h10.607142857142858c0.2557285714285714 0 0.5010428571428571 -0.10163571428571429 0.6818464285714285 -0.2824392857142857s0.2824392857142857 -0.42611785714285716 0.2824392857142857 -0.6818464285714285V2.892857142857143c0 -0.25574785714285714 -0.10163571428571429 -0.5010139285714286 -0.2824392857142857 -0.6818560714285714C12.554614285714287 2.0301685714285718 12.3093 1.9285714285714286 12.053571428571429 1.9285714285714286h-1.9285714285714286" stroke-width="0.5"></path><path id="Vector_2" stroke="#9c9c9b" stroke-linecap="round" stroke-linejoin="round" d="M0.48214285714285715 5.303571428571429h12.535714285714286" stroke-width="0.5"></path><path id="Vector_3" stroke="#9c9c9b" stroke-linecap="round" stroke-linejoin="round" d="M3.375 0.48214285714285715v2.892857142857143" stroke-width="0.5"></path><path id="Vector_4" stroke="#9c9c9b" stroke-linecap="round" stroke-linejoin="round" d="M10.125 0.48214285714285715v2.892857142857143" stroke-width="0.5"></path><path id="Vector_5" stroke="#9c9c9b" stroke-linecap="round" stroke-linejoin="round" d="M3.375 1.9285714285714286h4.821428571428571" stroke-width="0.5"></path></g></svg>