<svg xmlns="http://www.w3.org/2000/svg" fill="none" viewBox="0 0 14 14" id="Bluetooth-Searching--Streamline-Core.svg" height="14" width="14"><desc>Bluetooth Searching Streamline Icon: https://streamlinehq.com</desc><g id="bluetooth-searching--bluetooth-internet-server-network-wireless-searching-connecting-connection"><path id="Union" fill="#d9d9d9" fill-rule="evenodd" d="M11.3064 4.10894c1.5914 1.5914 1.5914 4.19089 0 5.78228 -0.2929 0.29288 -0.2929 0.76778 0 1.06068 0.2929 0.2929 0.7678 0.2929 1.0607 0 2.1771 -2.1772 2.1771 -5.72644 0 -7.90362 -0.2929 -0.29289 -0.7678 -0.29289 -1.0607 0 -0.2929 0.2929 -0.2929 0.76777 0 1.06066ZM9.78656 6.19052c0.42844 0.42847 0.42844 1.19022 0 1.6187 -0.29289 0.29289 -0.29289 0.76776 0 1.06066 0.29294 0.29289 0.76774 0.29289 1.06064 0 1.0143 -1.01426 1.0143 -2.72576 0 -3.74002 -0.2929 -0.2929 -0.7677 -0.2929 -1.06064 0 -0.29289 0.29289 -0.29289 0.76776 0 1.06066Z" clip-rule="evenodd" stroke-width="1"></path><path id="Vector (Stroke)" fill="#9c9c9b" fill-rule="evenodd" d="M3.71673 0.0657166c0.27044 -0.1205486 0.5865 -0.07069617 0.80671 0.1272454L8.26681 3.55776c0.16668 0.14982 0.25762 0.36632 0.24792 0.59023 -0.00969 0.2239 -0.11901 0.43174 -0.29802 0.56659L5.18345 6.99965l3.03326 2.28507c0.17901 0.13485 0.28833 0.34269 0.29802 0.56659 0.0097 0.22389 -0.08124 0.44039 -0.24792 0.59019l-3.74337 3.3648c-0.22021 0.198 -0.53627 0.2478 -0.80671 0.1273 -0.27045 -0.1206 -0.44466 -0.3889 -0.44466 -0.685V8.43957L1.1979 10.0021c-0.330837 0.2492 -0.80108 0.1831 -1.050314 -0.14775 -0.249234 -0.33084 -0.1830797 -0.80108 0.14776 -1.05032L2.69053 6.99965 0.295346 5.19526c-0.3308397 -0.24923 -0.396994 -0.71947 -0.14776 -1.05031s0.719477 -0.397 1.050314 -0.14776l2.07417 1.56254V0.750746c0 -0.296098 0.17421 -0.564481 0.44466 -0.6850294ZM4.77207 8.56775 6.58673 9.9348l-1.81466 1.6311V8.56775Zm0 -3.1362v-2.9982L6.58673 4.0645 4.77207 5.43155Z" clip-rule="evenodd" stroke-width="1"></path></g></svg>