<svg xmlns="http://www.w3.org/2000/svg" fill="none" viewBox="0 0 14 14" id="Receipt--Streamline-Core.svg" height="14" width="14"><desc>Receipt Streamline Icon: https://streamlinehq.com</desc><g id="receipt--shop-shopping-pay-payment-store-cash-bill-receipt"><path id="Subtract" fill="#9bd5ff" fill-rule="evenodd" d="M0.732 0.732A2.5 2.5 0 0 1 2.5 0H12a0.5 0.5 0 0 1 0.181 0.034A1.5 1.5 0 0 0 11 1.5v12a0.5 0.5 0 0 1 -0.757 0.429L8 12.583 5.757 13.93a0.5 0.5 0 0 1 -0.514 0L3 12.583 0.757 13.93A0.5 0.5 0 0 1 0 13.5v-11A2.5 2.5 0 0 1 0.732 0.732Z" clip-rule="evenodd" stroke-width="1"></path><path id="Union" fill="#0095ff" fill-rule="evenodd" d="M5.5 2a0.75 0.75 0 0 1 0.75 0.75v0.528a1.999 1.999 0 0 1 1.553 1.305 0.75 0.75 0 0 1 -1.415 0.5 0.5 0.5 0 0 0 -0.471 -0.333h-0.968a0.366 0.366 0 0 0 -0.078 0.723l1.473 0.322a2 2 0 0 1 -0.094 3.927v0.528a0.75 0.75 0 0 1 -1.5 0v-0.528a2.003 2.003 0 0 1 -1.553 -1.305 0.75 0.75 0 0 1 1.415 -0.5 0.5 0.5 0 0 0 0.471 0.333h0.834a0.5 0.5 0 0 0 0.107 -0.99L4.55 6.939a1.866 1.866 0 0 1 0.2 -3.677V2.75A0.75 0.75 0 0 1 5.5 2Z" clip-rule="evenodd" stroke-width="1"></path><path id="Vector 1296" fill="#0095ff" d="M11 1.5V6h2a1 1 0 0 0 1 -1V1.5a1.5 1.5 0 0 0 -3 0Z" stroke-width="1"></path></g></svg>