<svg xmlns="http://www.w3.org/2000/svg" fill="none" viewBox="-0.5 -0.5 24 24" id="Sort--Streamline-Rounded-Material-Symbols.svg" height="24" width="24"><desc>Sort Streamline Icon: https://streamlinehq.com</desc><path fill="#000000" d="M3.59375 17.25c-0.20364583333333333 0 -0.374310625 -0.06933541666666666 -0.5119895833333333 -0.20795833333333333C2.943918541666667 16.9035625 2.875 16.731877083333334 2.875 16.5269375c0 -0.20474791666666667 0.06891854166666668 -0.37504375 0.20676041666666667 -0.5107916666666668C3.219439375 15.880397916666668 3.3901041666666667 15.8125 3.59375 15.8125h4.3125c0.20364583333333333 0 0.37437291666666667 0.06933541666666666 0.5122291666666666 0.20795833333333333 0.13766458333333334 0.13847916666666665 0.20652083333333335 0.31016458333333335 0.20652083333333335 0.5151041666666667 0 0.20474791666666667 -0.06885625 0.37504375 -0.20652083333333335 0.5107916666666668 -0.13785625 0.13574791666666666 -0.3085833333333334 0.20364583333333333 -0.5122291666666666 0.20364583333333333h-4.3125Zm0 -5.03125c-0.20364583333333333 0 -0.374310625 -0.06933541666666666 -0.5119895833333333 -0.20795833333333333C2.943918541666667 11.872312500000001 2.875 11.700627083333334 2.875 11.4956875c0 -0.20474791666666667 0.06891854166666668 -0.37504375 0.20676041666666667 -0.5107916666666668 0.13767895833333332 -0.13574791666666666 0.30834374999999997 -0.20364583333333333 0.5119895833333333 -0.20364583333333333h10.0625c0.20364583333333333 0 0.37437291666666667 0.06933541666666666 0.5122291666666666 0.20795833333333333 0.13766458333333334 0.13847916666666665 0.20652083333333335 0.31016458333333335 0.20652083333333335 0.5151041666666667 0 0.20474791666666667 -0.06885625 0.37504375 -0.20652083333333335 0.5107916666666668 -0.13785625 0.13574791666666666 -0.3085833333333334 0.20364583333333333 -0.5122291666666666 0.20364583333333333h-10.0625Zm0 -5.03125c-0.20364583333333333 0 -0.374310625 -0.06933541666666666 -0.5119895833333333 -0.20795833333333333C2.943918541666667 6.8410625 2.875 6.669377083333333 2.875 6.4644375c0 -0.20474791666666667 0.06891854166666668 -0.37504375 0.20676041666666667 -0.5107916666666668C3.219439375 5.817897916666667 3.3901041666666667 5.75 3.59375 5.75h15.8125c0.20364583333333333 0 0.37437291666666667 0.06933541666666666 0.5122291666666666 0.20795833333333333 0.13766458333333334 0.13847916666666665 0.20652083333333335 0.31016458333333335 0.20652083333333335 0.5151041666666667 0 0.20474791666666667 -0.06885625 0.37504375 -0.20652083333333335 0.5107916666666668 -0.13785625 0.13574791666666666 -0.3085833333333334 0.20364583333333333 -0.5122291666666666 0.20364583333333333h-15.8125Z" stroke-width="1"></path></svg>