<svg xmlns="http://www.w3.org/2000/svg" fill="none" viewBox="-0.25 -0.25 7 7" id="User-Circle-Single--Streamline-Core.svg" height="7" width="7"><desc>User Circle Single Streamline Icon: https://streamlinehq.com</desc><g id="user-circle-single--circle-geometric-human-person-single-user"><path id="Vector" stroke="#9c9c9b" stroke-linecap="round" stroke-linejoin="round" d="M3.25 3.7142857142857144c0.6410439285714287 0 1.1607142857142858 -0.5196703571428571 1.1607142857142858 -1.1607142857142858S3.891043928571429 1.3928571428571428 3.25 1.3928571428571428 2.0892857142857144 1.9125275000000002 2.0892857142857144 2.553571428571429 2.6089560714285716 3.7142857142857144 3.25 3.7142857142857144Z" stroke-width="0.5"></path><path id="Vector_2" stroke="#9c9c9b" stroke-linecap="round" stroke-linejoin="round" d="M1.2674907142857144 5.525c0.20718285714285717 -0.34008928571428576 0.49836892857142856 -0.6211678571428572 0.8455617857142858 -0.8161678571428572 0.34719285714285714 -0.19505571428571428 0.7387157142857144 -0.2974957142857143 1.1369382142857143 -0.2974957142857143 0.3982225 0 0.7897453571428572 0.10244 1.1369382142857143 0.2974957142857143 0.3472067857142857 0.195 0.6383603571428571 0.47607857142857146 0.8455710714285715 0.8161678571428572" stroke-width="0.5"></path><path id="Vector_3" stroke="#9c9c9b" stroke-linecap="round" stroke-linejoin="round" d="M3.25 6.267857142857143c1.6667392857142858 0 3.017857142857143 -1.351117857142857 3.017857142857143 -3.017857142857143C6.267857142857143 1.5832839285714286 4.916739285714286 0.23214285714285715 3.25 0.23214285714285715 1.5832839285714286 0.23214285714285715 0.23214285714285715 1.5832839285714286 0.23214285714285715 3.25c0 1.6667392857142858 1.3511410714285714 3.017857142857143 3.017857142857143 3.017857142857143Z" stroke-width="0.5"></path></g></svg>